HIERARCHY
ROOT Hips
{
	OFFSET 0.000000 0.000000 0.000000
	CHANNELS 6 Xposition Yposition Zposition Yrotation Xrotation Zrotation
	JOINT Chest
	{
		OFFSET 0.000000 -0.009282 11.569106
		CHANNELS 6 Xposition Yposition Zposition Yrotation Xrotation Zrotation
		JOINT Chest2
		{
			OFFSET -0.000000 0.016863 9.269641
			CHANNELS 6 Xposition Yposition Zposition Yrotation Xrotation Zrotation
			JOINT Chest3
			{
				OFFSET -0.000000 0.000000 8.374491
				CHANNELS 6 Xposition Yposition Zposition Yrotation Xrotation Zrotation
				JOINT Chest4
				{
					OFFSET -0.000000 0.000000 8.374493
					CHANNELS 6 Xposition Yposition Zposition Yrotation Xrotation Zrotation
					JOINT Neck
					{
						OFFSET -0.000000 0.000001 12.152554
						CHANNELS 6 Xposition Yposition Zposition Yrotation Xrotation Zrotation
						JOINT Head
						{
							OFFSET -0.000000 0.040100 7.802319
							CHANNELS 6 Xposition Yposition Zposition Yrotation Xrotation Zrotation
							End Site
							{
								OFFSET -0.000000 0.020946 14.853096
							}
						}
					}
					JOINT RightCollar
					{
						OFFSET 2.894404 0.000001 6.791374
						CHANNELS 6 Xposition Yposition Zposition Yrotation Xrotation Zrotation
						JOINT RightShoulder
						{
							OFFSET 13.574684 0.000001 0.000000
							CHANNELS 6 Xposition Yposition Zposition Yrotation Xrotation Zrotation
							JOINT RightElbow
							{
								OFFSET 23.923903 0.000002 0.000000
								CHANNELS 6 Xposition Yposition Zposition Yrotation Xrotation Zrotation
								JOINT RightWrist
								{
									OFFSET 19.846718 0.012767 0.000000
									CHANNELS 6 Xposition Yposition Zposition Yrotation Xrotation Zrotation
									End Site
									{
										OFFSET 14.973145 0.000001 0.000000
									}
								}
							}
						}
					}
					JOINT LeftCollar
					{
						OFFSET -2.894404 0.000000 6.791374
						CHANNELS 6 Xposition Yposition Zposition Yrotation Xrotation Zrotation
						JOINT LeftShoulder
						{
							OFFSET -13.574684 -0.000001 0.000000
							CHANNELS 6 Xposition Yposition Zposition Yrotation Xrotation Zrotation
							JOINT LeftElbow
							{
								OFFSET -23.923903 -0.000002 0.000000
								CHANNELS 6 Xposition Yposition Zposition Yrotation Xrotation Zrotation
								JOINT LeftWrist
								{
									OFFSET -19.846718 0.012763 0.000000
									CHANNELS 6 Xposition Yposition Zposition Yrotation Xrotation Zrotation
									End Site
									{
										OFFSET -14.973145 -0.000001 0.000000
									}
								}
							}
						}
					}
				}
			}
		}
	}
	JOINT RightHip
	{
		OFFSET 9.469263 0.004643 0.045487
		CHANNELS 6 Xposition Yposition Zposition Yrotation Xrotation Zrotation
		JOINT RightKnee
		{
			OFFSET 0.000000 0.002666 -40.478676
			CHANNELS 6 Xposition Yposition Zposition Yrotation Xrotation Zrotation
			JOINT RightAnkle
			{
				OFFSET 0.000000 0.049110 -35.224068
				CHANNELS 6 Xposition Yposition Zposition Yrotation Xrotation Zrotation
				JOINT RightToe
				{
					OFFSET -0.000001 12.539530 -6.151390
					CHANNELS 6 Xposition Yposition Zposition Yrotation Xrotation Zrotation
					End Site
					{
						OFFSET -0.000001 5.044996 -1.291870
					}
				}
			}
		}
	}
	JOINT LeftHip
	{
		OFFSET -9.469263 0.004641 0.045487
		CHANNELS 6 Xposition Yposition Zposition Yrotation Xrotation Zrotation
		JOINT LeftKnee
		{
			OFFSET 0.000000 0.002666 -40.478676
			CHANNELS 6 Xposition Yposition Zposition Yrotation Xrotation Zrotation
			JOINT LeftAnkle
			{
				OFFSET 0.000000 0.049110 -35.224068
				CHANNELS 6 Xposition Yposition Zposition Yrotation Xrotation Zrotation
				JOINT LeftToe
				{
					OFFSET -0.000001 12.539530 -6.151390
					CHANNELS 6 Xposition Yposition Zposition Yrotation Xrotation Zrotation
					End Site
					{
						OFFSET -0.000001 5.044996 -1.291870
					}
				}
			}
		}
	}
}
MOTION
Frames: 4
Frame Time: 0.016667
4.885577 5.380584 83.038635 -9.877058 -2.424618 -103.999630 -0.000000 -0.009281 11.569108 0.186690 -2.006791 -0.214973 0.000000 0.016864 9.269624 0.089398 -0.879495 -0.129825 0.000001 0.000002 8.374498 0.089399 -0.879496 -0.129823 0.000001 0.000001 8.374493 0.066861 -0.659641 -0.097239 0.000001 -0.000001 12.152558 3.113148 -16.941625 -8.142214 0.000000 0.040099 7.802322 2.927852 4.655614 -13.985970 2.894404 0.000000 6.791368 4.638181 -2.730492 -8.335625 13.574686 0.000001 -0.000002 75.517386 5.419375 35.833877 23.923891 0.000009 -0.000004 102.411843 -16.601581 36.025990 19.846718 0.012766 0.000006 30.463009 52.963005 3.107952 -2.894403 -0.000000 6.791369 -8.069575 -1.591654 -4.480184 -13.574688 -0.000001 -0.000004 -70.168555 -14.756549 -40.620037 -23.923897 -0.000012 -0.000006 -59.705668 5.025130 -70.835448 -19.846720 0.012755 0.000008 2.897544 65.181069 -5.025404 9.469263 0.004643 0.045484 1.265203 -13.092650 -9.788748 0.000133 0.002657 -40.478489 -4.325180 3.608065 -3.160054 0.000018 0.049108 -35.224049 5.153781 0.305422 -0.391425 -0.000005 12.539525 -6.151388 0.061996 -0.015851 0.080636 -9.469263 0.004643 0.045488 0.024946 -13.289889 -24.239126 -0.000843 0.002517 -40.478428 -0.406742 5.610480 18.376364 -0.000930 0.048941 -35.224098 0.367859 -0.856751 20.397117 0.000004 12.539535 -6.151406 -0.059417 -0.044160 -0.114328 
4.888830 5.374443 83.039360 -9.879692 -2.428807 -103.963867 0.000001 -0.009284 11.569096 0.189121 -2.042053 -0.175856 0.000001 0.016862 9.269627 0.084031 -0.888129 -0.123784 0.000000 0.000001 8.374478 0.084031 -0.888131 -0.123785 0.000001 0.000000 8.374496 0.062842 -0.666115 -0.092714 0.000000 0.000003 12.152551 3.156452 -16.996108 -8.174165 -0.000001 0.040103 7.802298 3.001564 4.557025 -14.027872 2.894404 0.000001 6.791366 4.650085 -2.710464 -8.415383 13.574687 0.000002 0.000002 75.549119 5.693114 35.314790 23.923893 0.000006 -0.000003 102.545933 -16.073844 35.514877 19.846722 0.012771 -0.000002 30.934589 52.620576 0.411332 -2.894404 0.000001 6.791378 -8.052558 -1.588755 -4.486174 -13.574685 -0.000000 -0.000005 -70.435438 -14.609693 -40.569090 -23.923903 0.000008 -0.000002 -59.922923 4.938234 -71.235717 -19.846720 0.012743 0.000002 -0.834107 65.737402 -7.173544 9.469264 0.004640 0.045473 1.277048 -13.105578 -9.806537 0.000135 0.002657 -40.478497 -4.319946 3.615079 -3.171562 0.000019 0.049109 -35.224064 5.146270 0.297994 -0.391939 -0.000004 12.539525 -6.151389 0.059403 -0.007015 0.076814 -9.469260 0.004640 0.045480 0.033387 -13.293835 -24.190580 -0.000842 0.002518 -40.478428 -0.414086 5.622333 18.334490 -0.000934 0.048943 -35.224113 0.360447 -0.854136 20.430913 0.000004 12.539533 -6.151398 -0.041090 -0.051086 -0.088921 
4.888468 5.382588 83.039101 -9.860324 -2.405250 -103.909451 -0.000000 -0.009283 11.569106 0.171549 -2.063099 -0.151491 0.000001 0.016863 9.269636 0.080173 -0.898169 -0.112533 0.000000 0.000001 8.374488 0.080172 -0.898168 -0.112536 0.000000 0.000002 8.374503 0.059963 -0.673642 -0.084282 0.000000 0.000000 12.152554 3.196500 -17.030802 -8.210388 -0.000000 0.040104 7.802300 3.066076 4.494566 -14.079606 2.894404 0.000002 6.791374 4.674794 -2.689244 -8.471935 13.574683 0.000002 -0.000001 75.503848 5.983231 34.802570 23.923893 0.000005 -0.000007 102.653112 -15.498254 35.040021 19.846710 0.012748 0.000003 32.005208 52.600783 -2.252346 -2.894403 0.000001 6.791373 -8.037560 -1.561745 -4.494533 -13.574688 -0.000001 -0.000009 -70.647980 -14.463137 -40.516474 -23.923887 -0.000020 0.000000 -60.017063 4.964289 -71.557884 -19.846727 0.012770 0.000002 -3.689362 66.068925 -8.623291 9.469262 0.004644 0.045501 1.266217 -13.093282 -9.852440 0.000135 0.002657 -40.478508 -4.314785 3.630863 -3.176876 0.000019 0.049109 -35.224049 5.144304 0.295057 -0.398979 -0.000004 12.539525 -6.151400 0.058050 -0.008702 0.080042 -9.469263 0.004641 0.045493 0.031666 -13.272702 -24.169212 -0.000842 0.002519 -40.478439 -0.421503 5.635072 18.304239 -0.000932 0.048944 -35.224098 0.362530 -0.866577 20.376124 0.000006 12.539534 -6.151398 -0.044478 -0.049070 -0.103609 
4.893467 5.379319 83.038788 -9.840496 -2.399050 -103.864808 0.000000 -0.009281 11.569110 0.181629 -2.072526 -0.141285 0.000000 0.016864 9.269623 0.081250 -0.898044 -0.112587 0.000001 0.000001 8.374490 0.081250 -0.898043 -0.112587 0.000000 0.000000 8.374488 0.060770 -0.673548 -0.084319 0.000000 0.000001 12.152541 3.208669 -17.066404 -8.221348 -0.000001 0.040101 7.802318 3.087886 4.429209 -14.094299 2.894404 0.000002 6.791372 4.662140 -2.680162 -8.506418 13.574682 0.000003 0.000002 75.390269 6.217570 34.278425 23.923899 0.000006 -0.000003 102.854261 -14.711831 34.521388 19.846725 0.012766 -0.000009 33.510459 53.079534 -4.902555 -2.894404 0.000001 6.791373 -8.046953 -1.563179 -4.450158 -13.574681 0.000000 0.000005 -70.852141 -14.331007 -40.438920 -23.923906 0.000004 -0.000001 -60.067737 5.034377 -71.890774 -19.846722 0.012763 -0.000006 -5.670874 66.866903 -9.241220 9.469262 0.004643 0.045486 1.274898 -13.092827 -9.897068 0.000135 0.002657 -40.478500 -4.310894 3.654765 -3.183295 0.000019 0.049106 -35.224064 5.148228 0.289000 -0.390192 -0.000005 12.539528 -6.151392 0.050574 -0.006193 0.074696 -9.469264 0.004643 0.045488 0.040696 -13.255229 -24.148357 -0.000839 0.002519 -40.478432 -0.428544 5.655460 18.283003 -0.000929 0.048942 -35.224094 0.359514 -0.874161 20.371560 0.000002 12.539533 -6.151397 -0.032720 -0.052781 -0.084426 
